<?xml version="1.0" encoding="iso-8859-1"?>
<!-- Generator: Adobe Illustrator 18.0.0, SVG Export Plug-In . SVG Version: 6.00 Build 0)  -->
<!DOCTYPE svg PUBLIC "-//W3C//DTD SVG 1.1//EN" "http://www.w3.org/Graphics/SVG/1.1/DTD/svg11.dtd">
<svg version="1.1" id="Capa_1" xmlns="http://www.w3.org/2000/svg" xmlns:xlink="http://www.w3.org/1999/xlink" x="0px" y="0px"
	 viewBox="0 0 297 297" style="enable-background:new 0 0 297 297;" xml:space="preserve">
<path d="M241.39,92.758c-2.158-0.057-13.6,0.02-22.563,6.724c-7.892-4.286-16.928-6.724-26.522-6.724
	c-12.073,0-23.729,3.896-33.319,11.055c-9.295-6.941-20.817-11.055-33.283-11.055c-12.79,0-25.109,4.374-35.002,12.363
	c-9.568-7.725-21.728-12.363-34.954-12.363C25.007,92.758,0,117.765,0,148.504c0,30.738,25.007,55.746,55.746,55.746h185.508
	c30.738,0,55.746-25.008,55.746-55.746C297,117.81,272.066,92.831,241.39,92.758z M241.254,185.512H55.746
	c-20.406,0-37.008-16.602-37.008-37.008c0-20.406,16.602-37.008,37.008-37.008c20.406,0,37.008,16.602,37.008,37.008
	c0,5.174,4.195,9.369,9.369,9.369c5.174,0,9.369-4.195,9.369-9.369c0-10.751-3.068-20.795-8.361-29.32
	c6.45-4.971,14.362-7.688,22.571-7.688c20.406,0,37.008,16.602,37.008,37.008c0,5.174,4.195,9.369,9.369,9.369
	s9.369-4.195,9.369-9.369c0-11.447-3.473-22.098-9.413-30.959c5.988-3.925,13.014-6.049,20.27-6.049
	c20.406,0,37.008,16.602,37.008,37.008c0,5.174,4.195,9.369,9.369,9.369c5.175,0,9.369-4.195,9.369-9.369
	c0-13.785-5.04-26.407-13.36-36.149c2.555-0.712,5.074-0.899,6.239-0.864c0.108,0.004,0.216,0.006,0.324,0.006
	c20.406,0,37.008,16.602,37.008,37.008C278.262,168.91,261.66,185.512,241.254,185.512z"/>
<g>
</g>
<g>
</g>
<g>
</g>
<g>
</g>
<g>
</g>
<g>
</g>
<g>
</g>
<g>
</g>
<g>
</g>
<g>
</g>
<g>
</g>
<g>
</g>
<g>
</g>
<g>
</g>
<g>
</g>
</svg>
